<?xml version="1.0" encoding="UTF-8" standalone="no"?>
<!-- Generator: Adobe Illustrator 16.0.0, SVG Export Plug-In . SVG Version: 6.00 Build 0)  -->

<svg
   xmlns:dc="http://purl.org/dc/elements/1.1/"
   xmlns:cc="http://creativecommons.org/ns#"
   xmlns:rdf="http://www.w3.org/1999/02/22-rdf-syntax-ns#"
   xmlns:svg="http://www.w3.org/2000/svg"
   xmlns="http://www.w3.org/2000/svg"
   xmlns:sodipodi="http://sodipodi.sourceforge.net/DTD/sodipodi-0.dtd"
   xmlns:inkscape="http://www.inkscape.org/namespaces/inkscape"
   version="1.1"
   id="Capa_1"
   x="0px"
   y="0px"
   width="512px"
   height="512px"
   viewBox="0 0 97.75 97.75"
   style="enable-background:new 0 0 97.75 97.75;"
   xml:space="preserve"
   sodipodi:docname="copy.svg"
   inkscape:version="0.92.4 5da689c313, 2019-01-14"><metadata
   id="metadata45"><rdf:RDF><cc:Work
       rdf:about=""><dc:format>image/svg+xml</dc:format><dc:type
         rdf:resource="http://purl.org/dc/dcmitype/StillImage" /><dc:title></dc:title></cc:Work></rdf:RDF></metadata><defs
   id="defs43" /><sodipodi:namedview
   pagecolor="#ffffff"
   bordercolor="#666666"
   borderopacity="1"
   objecttolerance="10"
   gridtolerance="10"
   guidetolerance="10"
   inkscape:pageopacity="0"
   inkscape:pageshadow="2"
   inkscape:window-width="1366"
   inkscape:window-height="747"
   id="namedview41"
   showgrid="false"
   inkscape:zoom="0.4609375"
   inkscape:cx="237.55932"
   inkscape:cy="256"
   inkscape:window-x="0"
   inkscape:window-y="0"
   inkscape:window-maximized="0"
   inkscape:current-layer="Capa_1" />
<g
   id="g8">
	<g
   id="g6">
		
		<path
   style="fill:#a5de37;stroke-width:5.23785162"
   d="M 256 0 C 114.61991 0 0 114.61467 0 256 C 0 397.38533 114.61991 512 256 512 C 397.38009 512 512 397.38533 512 256 C 512 114.61467 397.38009 0 256 0 z M 128 95.457031 L 279.86523 95.457031 C 301.4994 95.457031 318.91602 112.87364 318.91602 134.50781 L 318.91602 143.18555 L 193.08398 143.18555 C 171.44981 143.18555 154.0332 160.60411 154.0332 182.23828 L 154.0332 351.45703 L 128 351.45703 C 106.36583 351.45703 88.949219 334.04042 88.949219 312.40625 L 88.949219 134.50781 C 88.949219 112.87364 106.36583 95.457031 128 95.457031 z M 223.62695 171.72852 L 375.49219 171.72852 C 397.12636 171.72852 414.54297 189.14513 414.54297 210.7793 L 414.54297 388.67773 C 414.54297 410.3119 397.12636 427.72852 375.49219 427.72852 L 223.62695 427.72852 C 201.99278 427.72852 184.57617 410.3119 184.57617 388.67773 L 184.57617 210.7793 C 184.57617 189.14513 201.99278 171.72852 223.62695 171.72852 z "
   transform="scale(0.19091797)"
   id="path4" />
	</g>
</g>
<g
   id="g10">
</g>
<g
   id="g12">
</g>
<g
   id="g14">
</g>
<g
   id="g16">
</g>
<g
   id="g18">
</g>
<g
   id="g20">
</g>
<g
   id="g22">
</g>
<g
   id="g24">
</g>
<g
   id="g26">
</g>
<g
   id="g28">
</g>
<g
   id="g30">
</g>
<g
   id="g32">
</g>
<g
   id="g34">
</g>
<g
   id="g36">
</g>
<g
   id="g38">
</g>
</svg>